<?xml version="1.0" encoding="utf-8"?>
<!-- Generator: Adobe Illustrator 25.2.3, SVG Export Plug-In . SVG Version: 6.00 Build 0)  -->
<svg version="1.1" id="Layer_1" xmlns="http://www.w3.org/2000/svg" xmlns:xlink="http://www.w3.org/1999/xlink" x="0px" y="0px"
	 viewBox="0 0 1920 1080" style="enable-background:new 0 0 1920 1080;" xml:space="preserve">
<style type="text/css">
	.st0{fill:#FF7396;}
	.st1{fill:none;stroke:#FF7396;stroke-width:10;stroke-miterlimit:10;}
	.st2{fill:#FF7396;stroke:#FF7396;stroke-width:10;stroke-miterlimit:10;}
</style>
<g>
	<path class="st0" d="M626.6,200.9v732.4H203.2V200.9H626.6 M636.6,190.9H193.2v752.4h443.5V190.9L636.6,190.9z"/>
</g>
<g>
	<path class="st0" d="M566.7,268.8v565.3H263.1V268.8H566.7 M576.7,258.8H253.1v585.3h323.6V258.8L576.7,258.8z"/>
</g>
<g>
	<line class="st1" x1="285.1" y1="230.9" x2="543.4" y2="229.5"/>
</g>
<circle class="st1" cx="418.2" cy="887.4" r="33.3"/>
<g>
	<path class="st0" d="M1700,200.3v732.4h-423.5V200.3H1700 M1710,190.3h-443.5v752.4H1710V190.3L1710,190.3z"/>
</g>
<g>
	<path class="st0" d="M1640.1,268.2v565.3h-303.6V268.2H1640.1 M1650.1,258.2h-323.6v585.3h323.6V258.2L1650.1,258.2z"/>
</g>
<g>
	<line class="st1" x1="1358.4" y1="230.2" x2="1616.8" y2="228.9"/>
</g>
<circle class="st1" cx="1491.6" cy="886.7" r="33.3"/>
<g>
	<line class="st2" x1="685.9" y1="310.8" x2="1122.7" y2="310.8"/>
	<polygon class="st2" points="1217.9,310.1 1118,252.4 1118,367.8 	"/>
</g>
<g>
	<line class="st2" x1="1220.3" y1="801.5" x2="783.5" y2="801.5"/>
	<polygon class="st2" points="688.2,802.2 788.1,859.8 788.1,744.5 	"/>
</g>
</svg>
