<?xml version="1.0" encoding="utf-8"?>
<!-- Generator: Adobe Illustrator 25.2.3, SVG Export Plug-In . SVG Version: 6.00 Build 0)  -->
<svg version="1.1" id="Layer_1" xmlns="http://www.w3.org/2000/svg" xmlns:xlink="http://www.w3.org/1999/xlink" x="0px" y="0px"
	 viewBox="0 0 1280 1024" style="enable-background:new 0 0 1280 1024;" xml:space="preserve">
<style type="text/css">
	.st0{fill:#FF7396;}
	.st1{fill:#FFFFFF;}
</style>
<g>
	<rect x="199" y="288" class="st0" width="871.8" height="432.9"/>
	<polygon class="st0" points="414.9,842.3 290,720.9 539.8,720.9 	"/>
</g>
<g>
	<path class="st1" d="M468.5,515.3h-96.1v84h-23.9V416.9h23.9v77h96.1v-77h23.9v182.4h-23.9V515.3z"/>
	<path class="st1" d="M650.1,581.5c-6.9,7-15.2,12.4-24.9,16.1c-9.7,3.7-20.5,5.5-32.5,5.5c-10.1,0-19.3-1.7-27.8-5
		c-8.5-3.4-15.8-8.1-21.9-14.2c-6.1-6.1-10.9-13.5-14.2-22.3c-3.4-8.7-5-18.4-5-29.2c0-10.7,1.7-20.3,5-28.7
		c3.4-8.4,8-15.5,13.8-21.3c5.9-5.8,12.8-10.2,20.8-13.2c8-3,16.6-4.5,26-4.5c9.4,0,18.1,1.6,26.2,4.7c8.1,3.1,15,7.6,20.9,13.5
		c5.9,5.9,10.4,13,13.7,21.3c3.3,8.3,4.9,17.7,4.9,28.1c0,1.8-0.2,3.9-0.5,6.3c-0.3,2.3-0.8,4.4-1.5,6H547.7
		c0.8,10.9,5.3,19.8,13.3,26.8c8.1,7,19,10.4,33,10.4c8.9,0,16.9-1.5,23.9-4.4c7-2.9,13-6.9,17.9-12L650.1,581.5z M631.2,524.3
		c-0.3-6.2-1.7-11.7-4-16.5c-2.4-4.8-5.4-8.8-9.2-12.1c-3.8-3.3-8.1-5.7-13-7.3c-4.9-1.6-10.1-2.4-15.6-2.4
		c-5.4,0-10.5,0.8-15.3,2.5c-4.9,1.7-9.2,4.2-13,7.4c-3.8,3.3-6.8,7.3-9.2,12.1c-2.4,4.8-3.8,10.2-4.3,16.2H631.2z"/>
	<path class="st1" d="M687.8,405.8H712v193.5h-24.2V405.8z"/>
	<path class="st1" d="M752.3,405.8h24.2v193.5h-24.2V405.8z"/>
	<path class="st1" d="M809.1,533.9c0-10.2,1.6-19.6,4.9-28.1c3.3-8.5,7.8-15.8,13.7-21.9c5.9-6.1,12.9-10.9,21-14.2
		c8.1-3.4,17.1-5,27-5c9.9,0,18.9,1.7,27,5c8.1,3.4,15.1,8.1,21,14.2c5.9,6.1,10.4,13.4,13.7,21.9c3.3,8.5,4.9,17.8,4.9,28.1
		c0,10.2-1.6,19.6-4.9,28.1c-3.3,8.5-7.8,15.8-13.7,21.9c-5.9,6.1-12.9,10.9-21,14.2c-8.1,3.4-17.2,5-27,5c-9.9,0-18.9-1.7-27-5
		c-8.1-3.4-15.1-8.1-21-14.2c-5.9-6.1-10.4-13.4-13.7-21.9C810.7,553.5,809.1,544.1,809.1,533.9z M918.6,533.9c0-6.9-1-13.2-2.9-19
		c-1.9-5.8-4.7-10.8-8.4-15.1c-3.7-4.3-8.2-7.6-13.5-10.1c-5.3-2.4-11.3-3.6-18-3.6c-6.7,0-12.7,1.2-18,3.6
		c-5.3,2.4-9.8,5.8-13.5,10.1c-3.7,4.3-6.5,9.3-8.4,15.1c-1.9,5.8-2.9,12.1-2.9,19c0,6.9,1,13.2,2.9,19c1.9,5.8,4.7,10.8,8.4,15.1
		c3.7,4.3,8.2,7.6,13.5,10.1c5.3,2.4,11.3,3.6,18,3.6c6.7,0,12.7-1.2,18-3.6c5.3-2.4,9.8-5.8,13.5-10.1c3.7-4.3,6.5-9.3,8.4-15.1
		C917.6,547.1,918.6,540.8,918.6,533.9z"/>
</g>
</svg>
