<?xml version="1.0" encoding="utf-8"?>
<!-- Generator: Adobe Illustrator 25.2.3, SVG Export Plug-In . SVG Version: 6.00 Build 0)  -->
<svg version="1.1" id="Layer_1" xmlns="http://www.w3.org/2000/svg" xmlns:xlink="http://www.w3.org/1999/xlink" x="0px" y="0px"
	 viewBox="0 0 1920 1080" style="enable-background:new 0 0 1920 1080;" xml:space="preserve">
<style type="text/css">
	.st0{fill:none;stroke:#FFFFFF;stroke-width:35.9994;stroke-miterlimit:9.9998;}
	.st1{fill:#FFFFFF;}
</style>
<ellipse transform="matrix(0.7071 -0.7071 0.7071 0.7071 127.7439 728.7862)" class="st0" cx="943.6" cy="210.2" rx="94.2" ry="94.2"/>
<ellipse transform="matrix(0.7071 -0.7071 0.7071 0.7071 -336.8415 924.7768)" class="st0" cx="947.9" cy="869" rx="94.2" ry="94.2"/>
<path class="st1" d="M517.8,619.6c-7.1,0-13.4-1.6-19-4.9c-5.6-3.3-8.4-8.4-8.4-15.3V422.6h39.2V507h41.8v-84.4h39.2v197H517.8z
	 M529.7,598.9c0,5,2.5,7.5,7.5,7.5h34.3v-86.1h-41.8V598.9z M667.3,507h19.9v-97.6h39.5v261.2h-39.5V520.3h-19.9v146h-38.9V410.8
	h38.9V507z"/>
<path class="st1" d="M883.2,425.7v67.7c0,4.8,2.5,7.2,7.5,7.2h150.6v13.2h-78.9v35.7h108.9v13.2H807.5v-13.2h111.7v-35.7h-52.1
	c-7.1,0-13.4-1.6-18.9-4.9c-5.5-3.3-8.2-8.4-8.2-15.3v-81.2h198.4v13.2L883.2,425.7L883.2,425.7z M883.8,585.5v60.8
	c0,4.8,2.5,7.2,7.5,7.2h155.2v13.2H868c-7.3,0-13.7-1.7-19.2-5c-5.5-3.4-8.2-8.4-8.2-15.1v-61.1L883.8,585.5L883.8,585.5z"/>
<path class="st1" d="M1232.4,597.7c16.3,0,31.6-0.4,46-1.3c14.4-0.9,28.4-3,42.2-6.5V409.4h43.2v88.4h40.6V511h-40.6v159.6h-43.2
	v-67.7c-13.8,3.5-28.5,5.7-43.9,6.6c-15.5,1-32,1.4-49.7,1.4h-47.8c-7.1,0-13.4-1.6-18.9-4.8s-8.2-8.3-8.2-15.4V422.6h43.2v168.2
	c0,4.6,2.5,6.9,7.5,6.9H1232.4z"/>
</svg>
