<?xml version="1.0" encoding="utf-8"?>
<!-- Generator: Adobe Illustrator 25.2.3, SVG Export Plug-In . SVG Version: 6.00 Build 0)  -->
<svg version="1.1" id="Layer_1" xmlns="http://www.w3.org/2000/svg" xmlns:xlink="http://www.w3.org/1999/xlink" x="0px" y="0px"
	 viewBox="0 0 1920 1080" style="enable-background:new 0 0 1920 1080;" xml:space="preserve">
<style type="text/css">
	.st0{fill:#FF7396;}
</style>
<g>
	<path class="st0" d="M512,508c63.1,0,124.2,12.3,181.8,36.7c55.6,23.5,105.6,57.2,148.4,100.1c42.9,42.9,76.6,92.8,100.1,148.4
		C966.7,850.8,979,911.9,979,975s-12.3,124.2-36.7,181.8c-23.5,55.6-57.2,105.6-100.1,148.4c-42.9,42.9-92.8,76.6-148.4,100.1
		c-57.6,24.3-118.7,36.7-181.8,36.7s-124.2-12.3-181.8-36.7c-55.6-23.5-105.6-57.2-148.4-100.1c-42.9-42.9-76.6-92.8-100.1-148.4
		C57.3,1099.2,45,1038.1,45,975s12.3-124.2,36.7-181.8c23.5-55.6,57.2-105.6,100.1-148.4c42.9-42.9,92.8-76.6,148.4-100.1
		C387.8,520.3,448.9,508,512,508 M512,493C245.8,493,30,708.8,30,975s215.8,482,482,482s482-215.8,482-482S778.2,493,512,493
		L512,493z"/>
</g>
<path class="st0" d="M792.3,295.8c5.3-8.7,11.6-16.4,18.9-22.9c7.4-6.5,15.7-11.6,25-15.2c9.3-3.6,19.3-5.6,30.1-6
	c10.8-0.4,22,1.1,33.8,4.4c12,3.4,22.7,8.3,32.2,14.7c9.4,6.3,17.1,13.7,23.1,22c6,8.3,10,17.4,12.1,27.1c2.1,9.7,1.7,19.6-1.1,29.5
	c-3.1,10.9-7.5,19.6-13.1,26.1c-5.6,6.5-12,11.9-19.1,16.3c-7.1,4.3-14.8,8.1-22.9,11.2c-8.2,3.2-16.3,6.7-24.4,10.6
	c-5.8,2.8-10.5,6-14.2,9.4c-3.6,3.5-6.7,7.3-9.3,11.4c-2.6,4.1-4.7,8.7-6.3,13.6c-1.7,4.9-3.2,10-4.8,15.3l-2.4,8.3l-33.3-9.5
	l2.7-9.4c2.4-8.3,5-15.8,7.7-22.4c2.8-6.6,6-12.5,9.8-17.8s8.3-10,13.6-14.1c5.3-4.1,11.8-8.1,19.4-11.9c5.8-2.8,12-5.3,18.5-7.5
	c6.5-2.1,12.7-4.7,18.5-7.6c5.8-2.9,11.1-6.8,15.7-11.5c4.6-4.7,8-10.8,10.2-18.5c1.9-6.5,2.2-12.9,1.2-19.2
	c-1.1-6.3-3.4-12.1-7-17.4c-3.6-5.3-8.3-9.9-14-14c-5.7-4-12.4-7.1-20-9.3c-15.3-4.4-29.2-3.7-41.9,2.1
	c-12.7,5.7-23.1,15.2-31.4,28.3L792.3,295.8z M801.5,500.7l40.9,11.7l-11.8,41.3L789.6,542L801.5,500.7z"/>
<path class="st0" d="M1052.3,415.3c9.3-4.1,18.9-6.8,28.7-7.9c9.8-1.1,19.5-0.5,29.2,1.9c9.7,2.4,19,6.5,28.1,12.3
	c9,5.8,17.4,13.5,25.2,23c7.9,9.7,13.8,19.9,18,30.5c4.1,10.6,6.2,21,6.3,31.3c0.1,10.3-1.8,20-5.6,29.2c-3.9,9.2-9.8,17-17.9,23.5
	c-8.8,7.1-17.3,11.7-25.7,13.8c-8.3,2.1-16.7,2.9-25,2.4c-8.3-0.5-16.7-1.8-25.2-3.9c-8.5-2.1-17.2-3.9-26.1-5.3
	c-6.4-1-12.1-1.1-17-0.4c-5,0.8-9.7,2.1-14.1,4c-4.5,1.9-8.8,4.4-13,7.5c-4.2,3.1-8.4,6.3-12.7,9.8l-6.7,5.4l-21.8-26.9l7.6-6.1
	c6.7-5.4,13.1-10.1,19.2-13.9c6-3.8,12.1-6.8,18.3-9c6.1-2.2,12.5-3.4,19.2-3.7s14.3,0.1,22.7,1.4c6.4,1,12.9,2.5,19.4,4.5
	c6.5,2,13.1,3.4,19.5,4.4c6.5,0.9,13,0.8,19.4-0.4c6.4-1.2,12.8-4.3,18.9-9.3c5.2-4.2,9.2-9.2,12-15c2.7-5.8,4.1-11.9,4.2-18.3
	c0.1-6.4-1.1-12.9-3.5-19.5c-2.4-6.6-6.1-12.9-11.1-19.1c-10-12.3-21.8-19.8-35.5-22.3c-13.7-2.6-27.7-0.8-42,5.2L1052.3,415.3z
	 M942.3,588.4l26.8,33.1l-33.4,27l-26.8-33.1L942.3,588.4z"/>
</svg>
