<?xml version="1.0" encoding="utf-8"?>
<!-- Generator: Adobe Illustrator 25.2.3, SVG Export Plug-In . SVG Version: 6.00 Build 0)  -->
<svg version="1.1" id="Layer_1" xmlns="http://www.w3.org/2000/svg" xmlns:xlink="http://www.w3.org/1999/xlink" x="0px" y="0px"
	 viewBox="0 0 1366 768" style="enable-background:new 0 0 1366 768;" xml:space="preserve">
<style type="text/css">
	.st0{fill:none;stroke:#FF7396;stroke-width:40;stroke-miterlimit:10;}
</style>
<g>
	<path class="st0" d="M673.9,103.4c37.9,0,74.6,7.4,109.2,22.1c33.4,14.2,63.4,34.3,89.2,60.2c25.8,25.8,46,55.7,60.2,89.2
		c14.6,34.6,22.1,71.3,22.1,109.2s-7.4,74.6-22.1,109.2c-14.2,33.4-34.3,63.4-60.2,89.2c-25.8,25.8-55.7,46-89.2,60.2
		c-34.6,14.6-71.3,22.1-109.2,22.1s-74.6-7.4-109.2-22.1c-33.4-14.2-63.4-34.3-89.2-60.2c-25.8-25.8-46-55.7-60.2-89.2
		c-14.6-34.6-22.1-71.3-22.1-109.2s7.4-74.6,22.1-109.2c14.2-33.4,34.3-63.4,60.2-89.2c25.8-25.8,55.7-46,89.2-60.2
		C599.3,110.8,636,103.4,673.9,103.4 M673.9,94c-160.2,0-290,129.8-290,290s129.8,290,290,290s290-129.8,290-290S834.1,94,673.9,94
		L673.9,94z"/>
</g>
</svg>
